<svg version="1.1" viewBox="0.0 0.0 376.78477690288713 109.49606299212599" fill="none" stroke="none" stroke-linecap="square" stroke-miterlimit="10" xmlns:xlink="http://www.w3.org/1999/xlink" xmlns="http://www.w3.org/2000/svg"><clipPath id="p.0"><path d="m0 0l376.7848 0l0 109.49606l-376.7848 0l0 -109.49606z" clip-rule="nonzero"/></clipPath><g clip-path="url(#p.0)"><path fill="#000000" fill-opacity="0.0" d="m0 0l376.7848 0l0 109.49606l-376.7848 0z" fill-rule="evenodd"/><path fill="#000000" fill-opacity="0.0" d="m-3.5223098 0.0048992126l376.31497 0l0 109.504486l-376.31497 0z" fill-rule="evenodd"/><path fill="#000000" d="m113.91643 90.32839l12.03125 -58.34375l12.59375 0l-0.90625 4.343748l-6.84375 0l-10.375 49.65625l6.90625 0l-0.90625 4.34375l-12.5 0z" fill-rule="nonzero"/><path fill="#000000" d="m246.72893 90.32839l-12.5 0l0.90625 -4.34375l6.90625 0l10.375 -49.65625l-6.875 0l0.90625 -4.343748l12.593735 0l-12.312485 58.34375z" fill-rule="nonzero"/><path fill="#000000" fill-opacity="0.0" d="m1.511811 11.884501l376.31497 0l0 97.645744l-376.31497 0z" fill-rule="evenodd"/><path fill="#999999" d="m163.02437 44.923q-1.703125 0.046875 -2.5 0.71875q-0.796875 0.671875 -1.015625 1.921875q-0.203125 1.25 -0.203125 3.28125l0 21.921871q0 1.4375 -0.03125 2.59375q-0.03125 1.140625 -0.140625 1.828125q0.90625 -0.109375 2.0 -0.125q1.09375 -0.03125 1.890625 -0.09375l0 2.9375l-13.109375 0l0 -2.34375q1.765625 -0.109375 2.53125 -0.75q0.765625 -0.640625 0.984375 -1.921875q0.21875 -1.28125 0.21875 -3.25l0 -22.187496q0 -1.171875 0.046875 -2.265625q0.0625 -1.09375 0.109375 -1.890625q-0.90625 0.046875 -1.984375 0.109375q-1.0625 0.046875 -1.90625 0.109375l0 -2.9375l13.109375 0l0 2.34375zm26.83397 9.171875q-0.265625 -2.71875 -1.390625 -4.90625q-1.125 -2.1875 -3.09375 -3.484375q-1.96875 -1.3125 -4.90625 -1.265625q-2.984375 0 -4.75 1.65625q-1.75 1.65625 -1.75 4.0q0 2.078125 1.171875 3.5q1.171875 1.40625 3.171875 2.53125q2.0 1.109375 4.5 2.234375q2.03125 0.859375 4.109375 1.921875q2.078125 1.0625 3.78125 2.421875q1.71875 1.3593712 2.71875 3.2656212q1.015625 1.890625 1.015625 4.4375q0 3.0 -1.546875 5.34375q-1.546875 2.34375 -4.40625 3.6875q-2.84375 1.328125 -6.890625 1.328125q-2.296875 0 -4.828125 -0.703125q-2.53125 -0.6875 -4.609375 -1.96875l0.265625 2.234375l-3.25 0l-0.21875 -11.734375l2.5625 0q0.421875 4.640625 3.328125 7.015625q2.90625 2.375 6.953125 2.375q2.03125 0 3.6875 -0.734375q1.65625 -0.75 2.609375 -2.140625q0.96875 -1.390625 0.96875 -3.25q0 -2.1875 -1.3125 -3.671875q-1.3125 -1.5 -3.3125 -2.5625q-2.0 -1.078125 -4.171875 -2.0312462q-2.1875 -0.96875 -4.25 -2.03125q-2.046875 -1.0625 -3.703125 -2.453125q-1.65625 -1.390625 -2.625 -3.28125q-0.953125 -1.890625 -0.953125 -4.453125q0 -1.5 0.53125 -3.140625q0.546875 -1.65625 1.8125 -3.140625q1.28125 -1.5 3.5 -2.4375q2.21875 -0.9375 5.578125 -0.9375q2.015625 0 4.546875 0.59375q2.546875 0.578125 4.625 2.078125l-0.21875 -2.234375l3.203125 0l0 11.9375l-2.453125 0zm23.735275 26.296871l-12.171875 -28.484371q-0.953125 -2.234375 -1.4375 -3.828125q-0.46875 -1.609375 -0.578125 -2.671875q-0.75 0.046875 -1.5 0.046875q-0.75 0 -1.4375 0.0625l0 -2.9375l13.484375 0l-0.046875 2.390625q-2.40625 0.0625 -3.125 1.34375q-0.71875 1.28125 0.359375 3.84375q1.21875 3.09375 2.421875 6.078125q1.203125 2.984375 2.578125 6.234375q1.125 2.7187462 2.140625 5.124996q1.015625 2.390625 1.765625 4.265625l0.046875 0q0.59375 -1.765625 1.21875 -3.546875q0.640625 -1.796875 1.453125 -3.984375q1.28125 -3.6249962 2.234375 -6.281246q0.953125 -2.671875 1.703125 -4.75q0.75 -2.078125 1.34375 -3.734375q0.421875 -1.21875 0.875 -2.359375q0.453125 -1.15625 0.875 -1.90625q-0.953125 0.046875 -2.078125 0.109375q-1.125 0.046875 -2.03125 0.109375l0 -2.9375l11.203125 0l0 2.34375q-2.125 0.109375 -3.40625 1.28125q-1.28125 1.171875 -2.359375 4.109375q-0.359375 0.953125 -0.765625 2.046875q-0.40625 1.09375 -0.96875 2.5625q-0.546875 1.46875 -1.296875 3.546875q-0.75 2.078125 -1.84375 5.09375q-1.09375 3.0156212 -2.609375 7.124996q-1.515625 4.09375 -3.59375 9.703125l-2.453125 0z" fill-rule="nonzero"/></g></svg>